<svg width="24" height="24" viewBox="0 0 24 24" fill="none" xmlns="http://www.w3.org/2000/svg">
<path d="M22 12C22 17.525 17.525 22 12 22C6.475 22 2 17.5125 2 12C2 6.4875 6.475 2 12 2C17.525 2 22 6.475 22 12Z" fill="#09121F"/>
<path d="M10.5 8.25C10.5 7.55964 9.94036 7 9.25 7C8.55964 7 8 7.55964 8 8.25C8 8.94036 8.55964 9.5 9.25 9.5C9.94036 9.5 10.5 8.94036 10.5 8.25Z" fill="white"/>
<path d="M16.5 8.25C16.5 7.55964 15.9404 7 15.25 7C14.5596 7 14 7.55964 14 8.25C14 8.94036 14.5596 9.5 15.25 9.5C15.9404 9.5 16.5 8.94036 16.5 8.25Z" fill="white"/>
<path fill-rule="evenodd" clip-rule="evenodd" d="M7.99667 17.8342C7.3054 17.5078 6.91191 16.775 7.0168 15.8934L7.0176 15.8866C7.20241 14.4577 8.01305 13.4708 9.38275 12.7455L9.38399 12.7449C10.2836 12.2708 11.3553 12 12.5166 12C13.7879 12 15.0465 12.4418 16.0363 13.1578C17.025 13.8729 17.7951 14.8998 18 16.1039L16.5829 16.3281C16.4509 15.5521 15.9372 14.817 15.1745 14.2654C14.4131 13.7146 13.4527 13.3846 12.5166 13.3846C11.5871 13.3846 10.7537 13.6011 10.0734 13.9595C9.99378 14.0017 9.91751 14.0443 9.84449 14.0876C9.85037 14.1762 9.86665 14.2813 9.89584 14.406C9.9453 14.6174 10.017 14.8305 10.0989 15.0736C10.1186 15.1321 10.1389 15.1925 10.1596 15.2549C10.2569 15.5483 10.3693 15.9055 10.3977 16.252C10.4272 16.6117 10.3739 17.0546 10.0344 17.4255C9.49268 18.0174 8.66286 18.1488 7.99667 17.8342ZM8.66054 15.2845C8.54992 15.519 8.47972 15.7738 8.44312 16.0544C8.41976 16.2552 8.4561 16.3821 8.49355 16.4545C8.53123 16.5275 8.58119 16.5685 8.62829 16.5907C8.72015 16.6341 8.84878 16.6283 8.95765 16.5094L8.95855 16.5074C8.95917 16.5058 8.96015 16.503 8.96128 16.4986C8.96612 16.48 8.97242 16.438 8.96612 16.3612C8.95244 16.1946 8.89196 15.9787 8.7918 15.6768C8.77586 15.6287 8.75882 15.5782 8.74113 15.5258C8.7152 15.449 8.68787 15.368 8.66054 15.2845Z" fill="white"/>
</svg>
