<svg width="20" height="20" viewBox="0 0 20 20" fill="none" xmlns="http://www.w3.org/2000/svg">
<path fill-rule="evenodd" clip-rule="evenodd" d="M10 18.94L15.3033 13.6366C16.3522 12.5877 17.0665 11.2514 17.3559 9.79652C17.6453 8.34166 17.4968 6.83367 16.9291 5.46323C16.3614 4.09279 15.4001 2.92145 14.1668 2.09735C12.9334 1.27324 11.4834 0.833374 10 0.833374C8.51665 0.833374 7.0666 1.27324 5.83324 2.09735C4.59987 2.92145 3.63858 4.09279 3.07092 5.46323C2.50326 6.83367 2.35473 8.34166 2.64411 9.79652C2.93349 11.2514 3.64779 12.5877 4.69667 13.6366L10 18.94ZM10 11.6667C11.8409 11.6667 13.3333 10.1743 13.3333 8.33337C13.3333 6.49242 11.8409 5.00004 10 5.00004C8.15905 5.00004 6.66667 6.49242 6.66667 8.33337C6.66667 10.1743 8.15905 11.6667 10 11.6667Z" fill="#3E404C"/>
<circle cx="10" cy="8" r="3" fill="white"/>
</svg>
