<svg width="24" height="24" viewBox="0 0 24 24" fill="none" xmlns="http://www.w3.org/2000/svg">
<path fill-rule="evenodd" clip-rule="evenodd" d="M18.364 16.3639L12 22.7279L5.636 16.3639C4.37734 15.1052 3.52019 13.5016 3.17293 11.7558C2.82567 10.0099 3.00391 8.20035 3.6851 6.55582C4.36629 4.91129 5.51984 3.50569 6.99988 2.51677C8.47992 1.52784 10.22 1 12 1C13.78 1 15.5201 1.52784 17.0001 2.51677C18.4802 3.50569 19.6337 4.91129 20.3149 6.55582C20.9961 8.20035 21.1743 10.0099 20.8271 11.7558C20.4798 13.5016 19.6227 15.1052 18.364 16.3639Z" fill="#0198ED"/>
<circle cx="12" cy="10" r="5" fill="white"/>
<path d="M9 10L11 11.5L14.5 8.5" stroke="#0198ED" stroke-width="2" stroke-linecap="round"/>
</svg>
