<svg width="20" height="20" viewBox="0 0 20 20" fill="none" xmlns="http://www.w3.org/2000/svg">
<path fill-rule="evenodd" clip-rule="evenodd" d="M10 18.9399L15.3033 13.6366C16.3522 12.5877 17.0665 11.2513 17.3559 9.79646C17.6453 8.3416 17.4968 6.83361 16.9291 5.46317C16.3614 4.09273 15.4001 2.92139 14.1668 2.09728C12.9334 1.27318 11.4834 0.833313 10 0.833313C8.51665 0.833313 7.0666 1.27318 5.83324 2.09728C4.59987 2.92139 3.63858 4.09273 3.07092 5.46317C2.50326 6.83361 2.35473 8.3416 2.64411 9.79646C2.93349 11.2513 3.64779 12.5877 4.69667 13.6366L10 18.9399ZM10 11.6666C11.8409 11.6666 13.3333 10.1743 13.3333 8.33331C13.3333 6.49236 11.8409 4.99998 10 4.99998C8.15905 4.99998 6.66667 6.49236 6.66667 8.33331C6.66667 10.1743 8.15905 11.6666 10 11.6666Z" fill="#3E404C"/>
<circle cx="10" cy="8" r="3" fill="white"/>
</svg>
