<svg width="32" height="32" viewBox="0 0 32 32" fill="none" xmlns="http://www.w3.org/2000/svg">
<path d="M29.3333 16C29.3333 23.3667 23.3666 29.3334 16 29.3334C8.63329 29.3334 2.66663 23.35 2.66663 16C2.66663 8.65002 8.63329 2.66669 16 2.66669C23.3666 2.66669 29.3333 8.63335 29.3333 16Z" fill="current"/>
<path d="M14 11C14 10.0795 13.2538 9.33331 12.3333 9.33331C11.4128 9.33331 10.6666 10.0795 10.6666 11C10.6666 11.9205 11.4128 12.6666 12.3333 12.6666C13.2538 12.6666 14 11.9205 14 11Z" fill="white"/>
<path d="M22 11C22 10.0795 21.2538 9.33331 20.3333 9.33331C19.4128 9.33331 18.6666 10.0795 18.6666 11C18.6666 11.9205 19.4128 12.6666 20.3333 12.6666C21.2538 12.6666 22 11.9205 22 11Z" fill="white"/>
<path fill-rule     ="evenodd" clip-rule="evenodd" d="M22.5503 14.9246C23.5558 15.4324 24.1281 16.5723 23.9756 17.9436L23.9744 17.9542L23.9743 17.9542C23.7055 20.1769 22.5265 21.7121 20.5342 22.8403L20.5324 22.8413C19.2239 23.5788 17.6651 24 15.9758 24C14.1268 24 12.2961 23.3128 10.8563 22.199C9.41816 21.0865 8.29801 19.4893 8 17.6161L10.0613 17.2674C10.2533 18.4746 11.0004 19.6179 12.1097 20.4761C13.2174 21.3329 14.6143 21.8462 15.9758 21.8462C17.3279 21.8462 18.54 21.5094 19.5296 20.9519C19.6454 20.8863 19.7564 20.8199 19.8626 20.7527C19.854 20.6148 19.8303 20.4514 19.7879 20.2573C19.7159 19.9285 19.6116 19.597 19.4926 19.2189C19.4639 19.1278 19.4344 19.034 19.4042 18.9368C19.2627 18.4804 19.0993 17.9248 19.0579 17.3858C19.015 16.8262 19.0925 16.1373 19.5863 15.5603C20.3743 14.6396 21.5813 14.4353 22.5503 14.9246ZM21.5847 18.8908C21.7456 18.526 21.8477 18.1297 21.9009 17.6932C21.9349 17.3808 21.882 17.1835 21.8276 17.0707C21.7728 16.9573 21.7001 16.8935 21.6316 16.8589C21.498 16.7915 21.3109 16.8004 21.1525 16.9854L21.1522 16.9858L21.1512 16.9885C21.1503 16.991 21.1489 16.9954 21.1472 17.0021C21.1402 17.0311 21.131 17.0965 21.1402 17.2159C21.1601 17.4751 21.2481 17.811 21.3937 18.2806C21.4169 18.3554 21.4417 18.4339 21.4674 18.5154C21.5052 18.6349 21.5449 18.7609 21.5847 18.8908Z" fill="white"/>
</svg>
