<svg width="24" height="24" viewBox="0 0 24 24" fill="none" xmlns="http://www.w3.org/2000/svg">
<path d="M22 12C22 17.525 17.525 22 12 22C6.475 22 2 17.5125 2 12C2 6.4875 6.475 2 12 2C17.525 2 22 6.475 22 12Z" fill="#FD6E21"/>
<path d="M10.5 8.25C10.5 7.55964 9.94036 7 9.25 7C8.55964 7 8 7.55964 8 8.25C8 8.94036 8.55964 9.5 9.25 9.5C9.94036 9.5 10.5 8.94036 10.5 8.25Z" fill="white"/>
<path d="M16.5 8.25C16.5 7.55964 15.9404 7 15.25 7C14.5596 7 14 7.55964 14 8.25C14 8.94036 14.5596 9.5 15.25 9.5C15.9404 9.5 16.5 8.94036 16.5 8.25Z" fill="white"/>
<path fill-rule="evenodd" clip-rule="evenodd" d="M16.9127 11.1934C17.6668 11.5743 18.0961 12.4292 17.9817 13.4577L17.9808 13.4656L17.9808 13.4656C17.7792 15.1327 16.8949 16.2841 15.4006 17.1302L15.3993 17.131C14.4179 17.6841 13.2488 18 11.9819 18C10.5951 18 9.22204 17.4846 8.14219 16.6492C7.06362 15.8149 6.22351 14.6169 6 13.2121L7.54594 12.9506C7.68997 13.8559 8.25031 14.7134 9.08231 15.357C9.91303 15.9997 10.9607 16.3846 11.9819 16.3846C12.9959 16.3846 13.905 16.132 14.6472 15.7139C14.7341 15.6647 14.8173 15.6149 14.8969 15.5645C14.8905 15.4611 14.8728 15.3385 14.8409 15.193C14.787 14.9464 14.7087 14.6978 14.6194 14.4142C14.5979 14.3458 14.5758 14.2755 14.5532 14.2026C14.447 13.8603 14.3244 13.4436 14.2934 13.0393C14.2612 12.6196 14.3194 12.103 14.6897 11.6702C15.2807 10.9797 16.186 10.8264 16.9127 11.1934ZM16.1885 14.1681C16.3092 13.8945 16.3858 13.5972 16.4257 13.2699C16.4512 13.0356 16.4115 12.8876 16.3707 12.803C16.3296 12.718 16.2751 12.6701 16.2237 12.6442C16.1235 12.5936 15.9831 12.6003 15.8644 12.7391L15.8642 12.7393L15.8634 12.7413C15.8627 12.7432 15.8617 12.7465 15.8604 12.7516C15.8551 12.7733 15.8483 12.8223 15.8551 12.9119C15.8701 13.1063 15.936 13.3582 16.0453 13.7105C16.0627 13.7665 16.0813 13.8254 16.1006 13.8865C16.1289 13.9762 16.1587 14.0706 16.1885 14.1681Z" fill="white"/>
</svg>
