<svg width="102" height="102" viewBox="0 0 102 102" fill="none" xmlns="http://www.w3.org/2000/svg">
<g clip-path="url(#clip0_69_2002)">
<path d="M84.2319 41.8761C89.1772 60.3323 78.234 79.2865 59.7778 84.2318C41.3216 89.1772 22.3562 78.1922 17.422 59.7777C12.4879 41.3633 23.4199 22.3673 41.8761 17.422C60.3324 12.4766 79.2866 23.4199 84.2319 41.8761Z" fill="#CDCED6"/>
<path d="M42.4598 39.6427C41.8419 37.3366 39.4715 35.968 37.1654 36.5859C34.8592 37.2038 33.4907 39.5743 34.1086 41.8804C34.7265 44.1865 37.0969 45.5551 39.4031 44.9372C41.7092 44.3192 43.0778 41.9488 42.4598 39.6427Z" fill="white"/>
<path d="M62.5028 34.2722C61.8849 31.9661 59.5145 30.5975 57.2083 31.2154C54.9022 31.8334 53.5336 34.2038 54.1516 36.5099C54.7695 38.816 57.1399 40.1846 59.446 39.5667C61.7522 38.9487 63.1207 36.5783 62.5028 34.2722Z" fill="white"/>
<path fill-rule="evenodd" clip-rule="evenodd" d="M42.6758 73.8993C40.0744 73.4277 38.104 71.3319 37.6653 68.2932L37.662 68.2698C37.0003 63.3311 38.8249 59.3087 42.7512 55.66L42.7548 55.6567C45.3354 53.2679 48.673 51.404 52.5525 50.3645C56.7991 49.2266 61.3989 49.5759 65.3464 51.0817C69.2893 52.5857 72.7809 55.3264 74.5431 59.1656L70.0099 61.1828C68.8742 58.7087 66.5005 56.7131 63.459 55.553C60.4223 54.3946 56.9189 54.152 53.7918 54.9898C50.6868 55.8218 48.0968 57.2909 46.1449 59.0971C45.9167 59.3093 45.7001 59.52 45.4948 59.7298C45.5938 60.0207 45.7423 60.3571 45.9514 60.7477C46.3058 61.4094 46.7362 62.0571 47.2271 62.7959C47.3454 62.9739 47.4672 63.1572 47.5923 63.3472C48.1801 64.2402 48.8751 65.3329 49.2802 66.4649C49.7008 67.6401 49.9191 69.1673 49.117 70.7103C47.8372 73.1724 45.1827 74.3539 42.6758 73.8993ZM42.6112 64.7878C42.4516 65.6703 42.4452 66.5842 42.574 67.5542C42.6758 68.246 42.9107 68.6373 43.1007 68.8459C43.2918 69.0557 43.4954 69.1479 43.6727 69.1801C44.0184 69.2427 44.4429 69.1084 44.7001 68.6136L44.7014 68.6063C44.702 68.6004 44.7027 68.59 44.7026 68.5745C44.7021 68.5079 44.6855 68.362 44.5958 68.1111C44.4009 67.5667 44.0056 66.8996 43.4008 65.9807C43.3046 65.8345 43.2025 65.6811 43.0965 65.5219C42.9411 65.2885 42.7773 65.0425 42.6112 64.7878Z" fill="white"/>
</g>
<defs>
<clipPath id="clip0_69_2002">
<rect width="83" height="83" fill="white" transform="translate(0 21.482) rotate(-15)"/>
</clipPath>
</defs>
</svg>
