<svg width="20" height="20" viewBox="0 0 20 20" fill="none" xmlns="http://www.w3.org/2000/svg">
<path fill="current" fill-rule="evenodd" clip-rule="evenodd" d="M16.7381 6.90159C16.4128 8.05403 15.7971 9.10369 14.95 9.95007L10 14.9001L5.05 9.94907C4.23855 9.13855 3.6389 8.14089 3.30391 7.04399C2.96891 5.9471 2.90884 4.78465 3.129 3.65907L1.97106e-07 5.00007V19.2411C-7.32996e-05 19.3238 0.0204083 19.4054 0.0596071 19.4783C0.0988059 19.5512 0.155495 19.6132 0.224587 19.6588C0.293679 19.7044 0.373012 19.7322 0.455466 19.7395C0.53792 19.7469 0.620914 19.7337 0.697 19.7011L7 17.0001L13 20.0001L20 17.0001V2.75807C20.0001 2.67528 19.9796 2.59378 19.9404 2.52087C19.9012 2.44795 19.8445 2.38591 19.7754 2.34031C19.7063 2.29471 19.627 2.26698 19.5445 2.25961C19.4621 2.25224 19.3791 2.26545 19.303 2.29807L16.808 3.36807C17.0875 4.53248 17.0634 5.74914 16.7381 6.90159ZM10 12.0701L13.536 8.53607V8.53507C14.2351 7.83575 14.7112 6.94484 14.904 5.97497C15.0968 5.0051 14.9977 3.99983 14.6193 3.08628C14.2408 2.17272 13.5999 1.39191 12.7777 0.84256C11.9555 0.293212 10.9889 0 10 0C9.01115 0 8.0445 0.293212 7.22229 0.84256C6.40007 1.39191 5.75921 2.17272 5.38073 3.08628C5.00225 3.99983 4.90316 5.0051 5.09598 5.97497C5.2888 6.94484 5.76487 7.83575 6.464 8.53507L10 12.0701ZM10 6C11.1046 6 12 5.10457 12 4C12 2.89543 11.1046 2 10 2C8.89543 2 8 2.89543 8 4C8 5.10457 8.89543 6 10 6Z" />
</svg>
